<svg width="18" height="18" viewBox="0 0 18 18" fill="none" xmlns="http://www.w3.org/2000/svg">
<path d="M9 0C4.0374 0 0 4.03745 0 9.00006C0 13.9627 4.0374 18 9 18C13.9626 18 18 13.9627 18 9.00006C18 4.03745 13.9626 0 9 0ZM9 16.3636C4.93964 16.3636 1.63636 13.0604 1.63636 9.00006C1.63636 4.93975 4.93964 1.63636 9 1.63636C13.0604 1.63636 16.3636 4.93975 16.3636 9.00006C16.3636 13.0604 13.0603 16.3636 9 16.3636Z" fill="#36FCF0"/>
<path d="M8.99981 3.81824C8.39839 3.81824 7.90912 4.30784 7.90912 4.90964C7.90912 5.51089 8.39839 6.00006 8.99981 6.00006C9.60123 6.00006 10.0905 5.51089 10.0905 4.90964C10.0905 4.30784 9.60123 3.81824 8.99981 3.81824Z" fill="#36FCF0"/>
<path d="M9.00001 7.63635C8.54815 7.63635 8.18182 8.00268 8.18182 8.45453V13.3636C8.18182 13.8155 8.54815 14.1818 9.00001 14.1818C9.45186 14.1818 9.81819 13.8155 9.81819 13.3636V8.45453C9.81819 8.00268 9.45186 7.63635 9.00001 7.63635Z" fill="#36FCF0"/>
</svg>
