<svg width="44" height="49" viewBox="0 0 44 49" fill="none" xmlns="http://www.w3.org/2000/svg">
<g filter="url(#filter0_dd_1_608)">
<path d="M38.5993 27.5239L34.9717 25.5239L36.6041 25.1602C37.511 24.9784 38.2366 23.8875 37.8738 22.9784C37.6924 22.0693 36.6041 21.3421 35.6972 21.7057C35.6972 21.7057 35.6972 21.7057 35.5159 21.7057L30.4372 23.1602L25.54 20.0693L30.4372 17.1602L35.5159 18.6148H36.06C37.1483 18.7966 38.0552 18.0693 38.0552 16.9784C38.2366 16.0693 37.511 15.1602 36.4228 14.9784L34.9717 14.6148L38.5993 12.433C39.5062 11.8875 39.6876 10.7966 39.3248 9.88752C38.7807 8.97843 37.6924 8.79661 36.7855 9.16024L32.7952 11.7057L33.3393 9.7057C33.7021 8.79661 33.1579 7.7057 32.0697 7.52388C31.1628 7.16024 30.0745 7.7057 29.8931 8.79661V8.97843L28.4421 14.433L23.7262 16.9784V11.1602L27.5352 7.34206C28.2607 6.61479 28.2607 5.52388 27.5352 4.79661C26.8097 4.06934 25.7214 4.06934 24.9959 4.79661L23.7262 6.06934V1.88752C23.7262 0.796609 23.0007 0.0693359 21.9124 0.0693359C20.8241 0.0693359 20.0986 0.796609 20.0986 1.88752V6.43297L18.6476 4.97843C17.9221 4.25115 16.8338 4.25115 16.1083 4.97843C15.3828 5.7057 15.3828 6.79661 16.1083 7.52388L20.0986 11.5239V16.9784L15.3828 14.2512L13.9317 8.79661C13.7503 7.7057 12.6621 7.16024 11.7552 7.34206C10.8483 7.7057 10.1228 8.61479 10.4855 9.52388V9.7057L11.0297 11.7057L7.03931 9.34206C6.31379 8.97843 5.04414 9.16024 4.68138 10.0693C4.31862 10.9784 4.5 12.0693 5.22552 12.6148L8.8531 14.6148L7.40207 15.1602C6.31379 15.3421 5.76966 16.2512 5.76966 17.1602C5.76966 18.0693 6.85793 18.7966 7.76483 18.7966H8.30897L13.3876 17.3421L18.2848 20.0693L13.3876 22.9784L8.30897 21.5239C7.40207 21.1602 6.31379 21.7057 5.95103 22.6148C5.58828 23.5239 6.13241 24.6148 7.03931 24.9784C7.22069 24.9784 7.22069 24.9784 7.40207 25.1602L9.03448 25.5239L5.4069 27.5239C4.5 28.0693 4.31862 29.1602 4.68138 30.0693C5.22552 30.9784 6.31379 31.1602 7.22069 30.7966L11.0297 28.433L10.4855 30.433C10.1228 31.3421 10.6669 32.433 11.7552 32.7966H12.2993C13.2062 32.7966 13.9317 32.2512 14.1131 31.5239L15.5641 26.0693L20.0986 23.3421V28.9784L16.2897 32.7966C15.5641 33.5239 15.5641 34.6148 16.2897 35.3421C16.6524 35.7057 17.0152 35.8875 17.5593 35.8875C18.1034 35.8875 18.4662 35.7057 18.829 35.3421L19.9172 34.2512V38.2512C19.9172 39.3421 20.6428 40.0693 21.731 40.0693C22.8193 40.0693 23.5448 39.3421 23.5448 38.2512V33.7057L24.9959 35.1602C25.7214 35.8875 26.8097 35.8875 27.5352 35.1602C28.2607 34.433 28.2607 33.3421 27.5352 32.6148L23.7262 28.6148V23.1602L28.4421 25.8875L29.8931 31.3421C30.0745 32.0693 30.8 32.7966 31.7069 32.6148H32.251C33.1579 32.433 33.8835 31.3421 33.5207 30.433L32.7952 28.433L36.6041 30.6148C37.511 31.1602 38.5993 30.7966 39.1435 29.8875C39.6876 29.1602 39.3248 28.0693 38.5993 27.5239Z" fill="url(#paint0_linear_1_608)"/>
</g>
<defs>
<filter id="filter0_dd_1_608" x="0.5" y="0.0693359" width="43" height="48" filterUnits="userSpaceOnUse" color-interpolation-filters="sRGB">
<feFlood flood-opacity="0" result="BackgroundImageFix"/>
<feColorMatrix in="SourceAlpha" type="matrix" values="0 0 0 0 0 0 0 0 0 0 0 0 0 0 0 0 0 0 127 0" result="hardAlpha"/>
<feOffset dy="4"/>
<feGaussianBlur stdDeviation="2"/>
<feComposite in2="hardAlpha" operator="out"/>
<feColorMatrix type="matrix" values="0 0 0 0 0 0 0 0 0 0 0 0 0 0 0 0 0 0 0.25 0"/>
<feBlend mode="normal" in2="BackgroundImageFix" result="effect1_dropShadow_1_608"/>
<feColorMatrix in="SourceAlpha" type="matrix" values="0 0 0 0 0 0 0 0 0 0 0 0 0 0 0 0 0 0 127 0" result="hardAlpha"/>
<feOffset dy="4"/>
<feGaussianBlur stdDeviation="2"/>
<feComposite in2="hardAlpha" operator="out"/>
<feColorMatrix type="matrix" values="0 0 0 0 0 0 0 0 0 0 0 0 0 0 0 0 0 0 0.25 0"/>
<feBlend mode="normal" in2="effect1_dropShadow_1_608" result="effect2_dropShadow_1_608"/>
<feBlend mode="normal" in="SourceGraphic" in2="effect2_dropShadow_1_608" result="shape"/>
</filter>
<linearGradient id="paint0_linear_1_608" x1="4.5" y1="40.0693" x2="50.2678" y2="8.78277" gradientUnits="userSpaceOnUse">
<stop stop-color="#3837FD"/>
<stop offset="1" stop-color="#36FCF0"/>
</linearGradient>
</defs>
</svg>
